<?xml version="1.0" encoding="utf-8"?>
<!-- Generator: Adobe Illustrator 24.3.0, SVG Export Plug-In . SVG Version: 6.00 Build 0)  -->
<svg version="1.1" id="Calque_1" xmlns="http://www.w3.org/2000/svg" xmlns:xlink="http://www.w3.org/1999/xlink" x="0px" y="0px"
	 viewBox="0 0 96 100.1" style="enable-background:new 0 0 96 100.1;" xml:space="preserve">
<style type="text/css">
	.st0{opacity:0.54;}
</style>
<g class="st0">
	<circle cx="48" cy="50.1" r="24"/>
	<path d="M48,90.1c-1.1,0-2-0.9-2-2v-10c0-1.1,0.9-2,2-2s2,0.9,2,2v10C50,89.2,49.1,90.1,48,90.1z"/>
	<path d="M48,24.1c-1.1,0-2-0.9-2-2v-10c0-1.1,0.9-2,2-2s2,0.9,2,2v10C50,23.2,49.1,24.1,48,24.1z"/>
	<path d="M86,52.1H76c-1.1,0-2-0.9-2-2s0.9-2,2-2h10c1.1,0,2,0.9,2,2S87.1,52.1,86,52.1z"/>
	<path d="M20,52.1H10c-1.1,0-2-0.9-2-2s0.9-2,2-2h10c1.1,0,2,0.9,2,2S21.1,52.1,20,52.1z"/>
	<path d="M67.8,32.3c-1.1,0-2-0.9-2-2c0-0.5,0.2-1,0.6-1.4l7.1-7.1c0.8-0.8,2-0.8,2.8,0s0.8,2,0,2.8l0,0l-7.1,7.1
		C68.8,32.1,68.3,32.3,67.8,32.3z"/>
	<path d="M21.1,79c-1.1,0-2-0.9-2-2c0-0.5,0.2-1,0.6-1.4l7.1-7.1c0.8-0.8,2-0.8,2.8,0s0.8,2,0,2.8l0,0l-7.1,7.1
		C22.2,78.8,21.7,79,21.1,79z"/>
	<path d="M74.9,79c-0.5,0-1-0.2-1.4-0.6l-7.1-7.1c-0.8-0.8-0.8-2,0-2.8s2-0.8,2.8,0l0,0l3.5,3.5l0,0l3.5,3.5c0.8,0.8,0.8,2,0,2.8
		C75.9,78.8,75.4,79,74.9,79z"/>
	<path d="M28.2,32.3c-0.5,0-1-0.2-1.4-0.6l-7.1-7.1c-0.8-0.8-0.8-2,0-2.8s2-0.8,2.8,0l7.1,7.1c0.8,0.8,0.8,2,0,2.8
		C29.2,32.1,28.7,32.3,28.2,32.3z"/>
</g>
</svg>
