<?xml version="1.0" encoding="utf-8"?>
<!-- Generator: Adobe Illustrator 24.3.0, SVG Export Plug-In . SVG Version: 6.00 Build 0)  -->
<svg version="1.1" id="Calque_1" xmlns="http://www.w3.org/2000/svg" xmlns:xlink="http://www.w3.org/1999/xlink" x="0px" y="0px"
	 viewBox="0 0 96 100.4" style="enable-background:new 0 0 96 100.4;" xml:space="preserve">
<style type="text/css">
	.st0{opacity:0.54;}
</style>
<g class="st0">
	<path d="M63,27.1c-0.6,0-1-0.5-1-1v-6.4c0-0.6,0.4-1,1-1s1,0.4,1,1l0,0v6.4C64,26.7,63.6,27.1,63,27.1z"/>
	<path d="M87,45h-6.3c-0.6,0-1-0.5-1-1s0.5-1,1-1H87c0.6,0,1,0.5,1,1C88,44.6,87.5,45,87,45z"/>
	<path d="M75.5,32.4c-0.3,0-0.5-0.1-0.7-0.3c-0.4-0.4-0.4-1,0-1.4l4.5-4.5c0.4-0.4,1-0.4,1.4,0l0,0c0.4,0.4,0.4,1,0,1.4l-2.2,2.3
		l0,0l-2.2,2.3C76,32.3,75.8,32.4,75.5,32.4z"/>
	<path d="M80,62.2c-0.3,0-0.5-0.1-0.7-0.3l-4.5-4.5c-0.4-0.4-0.4-1,0-1.4s1-0.4,1.4,0l0,0l4.5,4.5c0.4,0.4,0.4,1,0,1.4
		C80.5,62.1,80.2,62.2,80,62.2z"/>
	<path d="M50.5,32.4c-0.3,0-0.5-0.1-0.7-0.3l-2.2-2.3l0,0l-2.2-2.3c-0.4-0.4-0.4-1,0-1.4s1-0.4,1.4,0l0,0l4.5,4.5
		c0.4,0.4,0.4,1,0,1.4C51,32.3,50.8,32.4,50.5,32.4z"/>
	<path d="M70,53.9c-0.6-0.6-1.2-1.1-1.9-1.5c-2.2-1.5-4.7-2.3-7.4-2.3h-3.4c-0.4-3.8-1.8-7.4-4.2-10.3c-0.5-0.7-1.1-1.4-1.8-2
		c-3.6-3.8-8.5-5.9-13.7-6.1c-9.4,0-17.3,8.3-18.1,18.5C12.7,51,8,57.1,8,65.5c0,8.9,6.3,16.2,14,16.2h38.7c0.1,0,0.1,0,0.2,0
		c7.6-0.2,13.7-7.4,13.7-16.2C74.8,61.2,73.1,57,70,53.9z M23.3,57.1c0,0-4.3,0.9-6.4,4.1c-1.1,1.9-1.4,4.2-0.8,6.3
		c0.1,0.4-0.2,0.9-0.6,1c-0.1,0-0.1,0-0.2,0c-0.4,0-0.7-0.3-0.8-0.6c-0.8-2.6-0.4-5.3,1-7.6c2.4-3.8,7.3-4.7,7.5-4.8
		c0.5-0.1,0.9,0.2,1,0.7C24,56.6,23.7,57,23.3,57.1z M34.3,40.6c-1.2,0.5-2.3,1.3-3.2,2.2c-2.1,2.2-3.5,5-3.8,8
		c-0.1,0.4-0.4,0.7-0.8,0.7h-0.1c-0.5-0.1-0.8-0.5-0.7-1c1.3-8.8,7.8-11.4,8-11.5c0.4-0.2,0.9,0,1.1,0.5
		C34.9,39.9,34.7,40.4,34.3,40.6z"/>
	<path d="M59.6,47.6h1.2c4.1,0,8.1,1.7,11,4.5c4.4-5.3,3.6-13.2-1.7-17.6c-5.1-4.3-12.7-3.7-17.2,1.2c0.8,0.8,1.5,1.6,2.2,2.5
		C57.3,41,58.8,44.2,59.6,47.6z"/>
</g>
</svg>
