<?xml version="1.0" encoding="utf-8"?>
<!-- Generator: Adobe Illustrator 24.3.0, SVG Export Plug-In . SVG Version: 6.00 Build 0)  -->
<svg version="1.1" id="Calque_1" xmlns="http://www.w3.org/2000/svg" xmlns:xlink="http://www.w3.org/1999/xlink" x="0px" y="0px"
	 viewBox="0 0 96 100.4" style="enable-background:new 0 0 96 100.4;" xml:space="preserve">
<style type="text/css">
	.st0{opacity:0.54;}
</style>
<path class="st0" d="M71.3,42.3h-4c-1.2-12.6-13.2-22.1-23.7-22.1c-11.2,0-20.8,10-21.7,22.2C13.6,43.4,8,50.7,8,60.7
	c0,10.7,7.6,19.5,16.8,19.5h46.5c0.1,0,0.1,0,0.2,0C80.6,80,88,71.3,88,60.7C88,50.3,80.8,42.4,71.3,42.3z M26.3,50.7
	c-0.1,0-5.2,1.1-7.7,4.9c-1.4,2.3-1.7,5-0.9,7.6c0.1,0.5-0.2,1.1-0.7,1.2s-1.1-0.2-1.2-0.7c-0.9-3.1-0.5-6.4,1.2-9.1
	c2.9-4.5,8.7-5.7,9-5.7c0.5-0.1,1.1,0.3,1.2,0.8C27.2,50,26.9,50.6,26.3,50.7z M39.5,30.9c-0.3,0.1-7,2.9-8.4,12.2
	c-0.1,0.5-0.5,0.9-1,0.9H30c-0.5-0.1-0.9-0.6-0.8-1.1c1.6-10.5,9.3-13.7,9.6-13.8c0.5-0.2,1.1,0.1,1.3,0.6
	C40.3,30.1,40,30.7,39.5,30.9z"/>
</svg>
