<?xml version="1.0" encoding="utf-8"?>
<!-- Generator: Adobe Illustrator 24.3.0, SVG Export Plug-In . SVG Version: 6.00 Build 0)  -->
<svg version="1.1" id="Calque_1" xmlns="http://www.w3.org/2000/svg" xmlns:xlink="http://www.w3.org/1999/xlink" x="0px" y="0px"
	 viewBox="0 0 100 99.9" style="enable-background:new 0 0 100 99.9;" xml:space="preserve">
<style type="text/css">
	.st0{opacity:0.54;}
</style>
<path class="st0" d="M76.1,52L76.1,52L76.1,52L53.5,10.8L50,4.4l-3.5,6.4L23.9,52l0,0l0,0c-2.2,4.2-3.4,9-3.4,13.8
	c0,16.3,13.2,29.5,29.5,29.5s29.5-13.2,29.5-29.5C79.5,61,78.3,56.3,76.1,52z M58.9,85.3c0.4-12,11-14.2,10.9-27.9
	c1.1,2.6,1.7,5.4,1.7,8.4C71.5,74.5,66.3,81.9,58.9,85.3z"/>
</svg>
