<?xml version="1.0" encoding="utf-8"?>
<!-- Generator: Adobe Illustrator 24.3.0, SVG Export Plug-In . SVG Version: 6.00 Build 0)  -->
<svg version="1.1" id="Calque_1" xmlns="http://www.w3.org/2000/svg" xmlns:xlink="http://www.w3.org/1999/xlink" x="0px" y="0px"
	 viewBox="0 0 100 100.6" style="enable-background:new 0 0 100 100.6;" xml:space="preserve">
<style type="text/css">
	.st0{opacity:0.6;enable-background:new    ;}
	.st1{opacity:0.6;fill:#1D1D1B;enable-background:new    ;}
</style>
<path class="st0" d="M71.5,65.8c0-2.9-0.6-5.7-1.7-8.4C70,71.1,59.3,73.3,58.9,85.3C66.3,81.9,71.5,74.5,71.5,65.8z"/>
<path class="st1" d="M76.1,52L76.1,52L76.1,52L53.5,10.8L50,4.4l-3.5,6.4L23.9,52l0,0l0,0c-2.2,4.2-3.4,9-3.4,13.8
	c0,16.3,13.2,29.5,29.5,29.5s29.5-13.2,29.5-29.5C79.5,61,78.3,56.3,76.1,52z M62.2,88.2c-0.7,0.4-1.5,0.8-2.2,1.1
	c-0.8,0.3-1.5,0.6-2.3,0.9c-2.4,0.7-4.9,1.1-7.6,1.1l0,0l0,0c-14.1,0-25.5-11.4-25.5-25.5c0-2.7,0.4-5.3,1.2-7.7
	c0.5-1.5,1.1-2.9,1.8-4.2L50,12.7l0,0l0,0l22.5,41.2c1.9,3.6,3,7.6,3,11.9C75.5,75.5,70.1,83.9,62.2,88.2z"/>
</svg>
