<?xml version="1.0" encoding="utf-8"?>
<!-- Generator: Adobe Illustrator 24.3.0, SVG Export Plug-In . SVG Version: 6.00 Build 0)  -->
<svg version="1.1" id="Calque_1" xmlns="http://www.w3.org/2000/svg" xmlns:xlink="http://www.w3.org/1999/xlink" x="0px" y="0px"
	 viewBox="0 0 100 99.6" style="enable-background:new 0 0 100 99.6;" xml:space="preserve">
<style type="text/css">
	.st0{opacity:0.54;enable-background:new    ;}
	.st1{opacity:0.5;enable-background:new    ;}
</style>
<path class="st0" d="M50,12.7l22.5,41.2c1.9,3.6,3,7.6,3,11.9c0,14.1-11.4,25.5-25.5,25.5S24.5,79.9,24.5,65.8c0-4.3,1.1-8.3,3-11.9
	L50,12.7 M50,4.4l-3.5,6.4L23.9,52l0,0l0,0c-2.2,4.2-3.4,9-3.4,13.8c0,16.3,13.2,29.5,29.5,29.5s29.5-13.2,29.5-29.5
	c0-4.8-1.2-9.5-3.4-13.8l0,0l0,0L53.5,10.8L50,4.4L50,4.4z"/>
<path class="st1" d="M50,87.3c11.2,0,20.4-8.6,21.4-19.5c-1.5-0.8-2.8-2.1-4.7-2.1c-2.8,0-4.2,2.8-7,2.8s-4.2-2.8-7-2.8
	s-4.2,2.8-7,2.8s-4.2-2.8-7-2.8s-4.2,2.8-7,2.8c-1.1,0-2.1-0.5-2.9-1C29.5,78.6,38.7,87.3,50,87.3z"/>
</svg>
