<svg xmlns="http://www.w3.org/2000/svg" xmlns:xlink="http://www.w3.org/1999/xlink" version="1.1" x="0px" y="0px" viewBox="0 0 100 125" enable-background="new 0 0 100 100" xml:space="preserve">
    <path d="M50,12.7l22.5,41.2c1.9,3.6,3,7.6,3,11.9c0,14.1-11.4,25.5-25.5,25.5S24.5,79.9,24.5,65.8c0-4.3,1.1-8.3,3-11.9L50,12.7   M50,4.4l-3.5,6.4L23.9,52l0,0l0,0c-2.2,4.2-3.4,9-3.4,13.8c0,16.3,13.2,29.5,29.5,29.5s29.5-13.2,29.5-29.5c0-4.8-1.2-9.5-3.4-13.8  l0,0l0,0L53.5,10.8L50,4.4L50,4.4z"/>
    <path d="M50,87.3c11.2,0,20.4-8.6,21.4-19.5c-1.5-0.8-2.8-2.1-4.7-2.1c-2.8,0-4.2,2.8-7,2.8c-2.8,0-4.2-2.8-7-2.8  c-2.8,0-4.2,2.8-7,2.8c-2.8,0-4.2-2.8-7-2.8c-2.8,0-4.2,2.8-7,2.8c-1.1,0-2.1-0.5-2.9-1C29.5,78.6,38.7,87.3,50,87.3z"/>
</svg>
